{"title":"The Duff 2015 RU WEB DL XViD AC3 MURD3R","uid":11750939,"size":1388114232,"categoryP":"video","categoryS":"movies","magnet":"?xt=urn:btih:b4f3f18fd21ec10e3e5a3979b38b7de5a49fc8ec&amp;dn=The+Duff+2015+RU+WEB+DL+XViD+AC3+MURD3R&amp;tr=udp%3A%2F%2Ftracker.openbittorrent.com%3A80&amp;tr=udp%3A%2F%2Fopen.demonii.com%3A1337&amp;tr=udp%3A%2F%2Ftracker.coppersurfer.tk%3A6969&amp;tr=udp%3A%2F%2Fexodus.desync.com%3A6969","seeders":16,"leechers":6,"uploader":".BONE.","files":9,"time":1426208010,"description":"The Duff 2015 RU WEB DL XViD AC3 MURD3R.avi\n\nFormat : AVI\nFormat/Info : Audio Video Interleave\nFile size : 1.29 GiB\nDuration : 1h 37mn\nOverall bit rate : 1 899 Kbps\n\nVideo\nID : 0\nFormat : MPEG-4 Visual\nFormat profile : Advanced Simple@L5\nFormat settings, BVOP : 2\nFormat settings, QPel : No\nFormat settings, GMC : No warppoints\nFormat settings, Matrix : Default (MPEG)\nCodec ID : XVID\nCodec ID/Hint : XviD\nDuration : 1h 37mn\nBit rate : 1 760 Kbps\nWidth : 720 pixels\nHeight : 320 pixels\nDisplay aspect ratio : 2.25:1\nFrame rate : 25.000 fps\nColor space : YUV\nChroma subsampling : 4:2:0\nBit depth : 8 bits\nScan type : Progressive\nCompression mode : Lossy\nBits/(Pixel*Frame) : 0.306\nStream size : 1.19 GiB (93%)\nWriting library : XviD 73\n\nAudio\nID : 1\nFormat : AC-3\nFormat/Info : Audio Coding 3\nMode extension : CM (complete main)\nFormat settings, Endianness : Big\nCodec ID : 2000\nDuration : 1h 37mn\nBit rate mode : Constant\nBit rate : 128 Kbps\nChannel(s) : 6 channels\nChannel positions : Front: L C R, Side: L R, LFE\nSampling rate : 44.1 KHz\nBit depth : 16 bits\nCompression mode : Lossy\nStream size : 88.9 MiB (7%)\nAlignment : Aligned on interleaves\nInterleave, duration : 35 ms (0.87 video frame)\n &lt;a href=&quot;\nhttp://s20.postimage.org/k1wfqja4d/vlcsnap_2015_03_12_23h33m56s220.png&quot; rel=&quot;nofollow&quot; target=&quot;_NEW&quot;&gt;\nhttp://s20.postimage.org/k1wfqja4d/vlcsnap_2015_03_12_23h33m56s220.png&lt;/a&gt; &lt;a href=&quot;\nhttp://s20.postimage.org/7ojljmkfx/vlcsnap_2015_03_12_23h32m56s135.png&quot; rel=&quot;nofollow&quot; target=&quot;_NEW&quot;&gt;\nhttp://s20.postimage.org/7ojljmkfx/vlcsnap_2015_03_12_23h32m56s135.png&lt;/a&gt; &lt;a href=&quot;\nhttp://s20.postimage.org/kh7pjjw1p/vlcsnap_2015_03_12_23h32m31s132.png&quot; rel=&quot;nofollow&quot; target=&quot;_NEW&quot;&gt;\nhttp://s20.postimage.org/kh7pjjw1p/vlcsnap_2015_03_12_23h32m31s132.png&lt;/a&gt; &lt;a href=&quot;\nhttp://s20.postimage.org/lkrtvigot/vlcsnap_2015_03_12_23h33m22s140.png&quot; rel=&quot;nofollow&quot; target=&quot;_NEW&quot;&gt;\nhttp://s20.postimage.org/lkrtvigot/vlcsnap_2015_03_12_23h33m22s140.png&lt;/a&gt; &lt;a href=&quot;\nhttp://s20.postimage.org/j64jotptp/vlcsnap_2015_03_12_23h33m28s198.png&quot; rel=&quot;nofollow&quot; target=&quot;_NEW&quot;&gt;\nhttp://s20.postimage.org/j64jotptp/vlcsnap_2015_03_12_23h33m28s198.png&lt;/a&gt;","torrent":{"xt":"urn:btih:b4f3f18fd21ec10e3e5a3979b38b7de5a49fc8ec","amp;dn":"The+Duff+2015+RU+WEB+DL+XViD+AC3+MURD3R","amp;tr":["udp%3A%2F%2Ftracker.openbittorrent.com%3A80","udp%3A%2F%2Fopen.demonii.com%3A1337","udp%3A%2F%2Ftracker.coppersurfer.tk%3A6969","udp%3A%2F%2Fexodus.desync.com%3A6969"],"infoHash":"b4f3f18fd21ec10e3e5a3979b38b7de5a49fc8ec","infoHashBuffer":{"type":"Buffer","data":[180,243,241,143,210,30,193,14,62,90,57,121,179,139,125,229,164,159,200,236]},"announce":[],"urlList":[]}}